<?xml version="1.0" encoding="iso-8859-1"?>
<!-- Generator: Adobe Illustrator 17.1.0, SVG Export Plug-In . SVG Version: 6.00 Build 0)  -->
<!DOCTYPE svg PUBLIC "-//W3C//DTD SVG 1.1//EN" "http://www.w3.org/Graphics/SVG/1.1/DTD/svg11.dtd">
<svg xmlns="http://www.w3.org/2000/svg" xmlns:xlink="http://www.w3.org/1999/xlink" version="1.1" id="Capa_1" x="0px" y="0px" viewBox="0 0 495.003 495.003" style="enable-background:new 0 0 495.003 495.003;" xml:space="preserve" width="512px" height="512px">
<g>
	<path d="M487.503,100.001h-41.734c-3.138-9.29-11.93-16-22.266-16h-40.5v-16.5c0-12.958-10.542-23.5-23.5-23.5h-64.5v-0.5   c0-12.958-10.542-23.5-23.5-23.5h-184c-24.094,0-47.367,10.086-63.851,27.672C6.937,65.505-1.395,88.815,0.191,113.31   c2.965,45.809,42.521,81.691,90.052,81.691h11.069c7.733,0,14.848,3.533,19.521,9.694s6.157,13.965,4.072,21.412L87.439,359.914   c-1.993,7.117-8.546,12.087-15.936,12.087c-4.142,0-7.5,3.358-7.5,7.5v80c0,8.547,6.953,15.5,15.5,15.5h128   c8.547,0,15.5-6.953,15.5-15.5v-72c0-8.547-6.953-15.5-15.5-15.5h-8.665c-2.683,0-5.151-1.226-6.772-3.363   s-2.136-4.845-1.413-7.429l33.098-118.208h31.751c2.531,0,4.892-1.276,6.277-3.395c1.385-2.118,1.609-4.792,0.594-7.111   c-0.076-0.173-6.938-16.306-1.326-37.494h10.455c12.958,0,23.5-10.542,23.5-23.5v-0.5h64.5c12.958,0,23.5-10.542,23.5-23.5v-16.5   h40.5c10.336,0,19.128-6.71,22.266-16h41.734c4.142,0,7.5-3.358,7.5-7.5S491.645,100.001,487.503,100.001z M245.512,228.001   h-17.561l9.24-33h8.437C242.751,208.501,243.874,220.158,245.512,228.001z M280.003,171.501c0,4.687-3.813,8.5-8.5,8.5h-40   c-3.363,0-6.315,2.239-7.222,5.478l-48.072,171.686c-2,7.142-0.577,14.628,3.906,20.538c4.482,5.909,11.307,9.299,18.724,9.299   h8.665c0.276,0,0.5,0.225,0.5,0.5v72c0,0.275-0.224,0.5-0.5,0.5h-128c-0.276,0-0.5-0.225-0.5-0.5v-72.5h80.5   c4.142,0,7.5-3.358,7.5-7.5s-3.358-7.5-7.5-7.5H98.341c1.526-2.463,2.734-5.158,3.542-8.042l37.466-133.807   c3.361-12.005,0.969-24.587-6.565-34.521c-0.164-0.216-0.339-0.418-0.507-0.63h67.226c4.142,0,7.5-3.358,7.5-7.5   s-3.358-7.5-7.5-7.5h-96c-0.263,0-0.522,0.014-0.778,0.041c-0.47-0.017-0.939-0.041-1.413-0.041H90.243   c-39.646,0-72.627-29.72-75.083-67.66c-1.315-20.313,5.587-39.636,19.436-54.41c13.86-14.786,32.649-22.93,52.907-22.93h184   c4.687,0,8.5,3.813,8.5,8.5V171.501z M368.003,147.501c0,4.687-3.813,8.5-8.5,8.5h-0.5v-64.5c0-4.142-3.358-7.5-7.5-7.5   s-7.5,3.358-7.5,7.5v64.5h-49v-97h49v8.5c0,4.142,3.358,7.5,7.5,7.5s7.5-3.358,7.5-7.5v-8.5h0.5c4.687,0,8.5,3.813,8.5,8.5V147.501   z M423.503,116.001h-40.5v-17h40.5c4.687,0,8.5,3.813,8.5,8.5S428.19,116.001,423.503,116.001z" fill="#FFFFFF"/>
	<path d="M119.503,100.001h-72c-4.142,0-7.5,3.358-7.5,7.5s3.358,7.5,7.5,7.5h72c4.142,0,7.5-3.358,7.5-7.5   S123.645,100.001,119.503,100.001z" fill="#FFFFFF"/>
	<path d="M63.503,91.001h40c4.142,0,7.5-3.358,7.5-7.5s-3.358-7.5-7.5-7.5h-40c-4.142,0-7.5,3.358-7.5,7.5   S59.36,91.001,63.503,91.001z" fill="#FFFFFF"/>
	<path d="M103.503,124.001h-40c-4.142,0-7.5,3.358-7.5,7.5c0,4.142,3.358,7.5,7.5,7.5h40c4.142,0,7.5-3.358,7.5-7.5   C111.003,127.359,107.645,124.001,103.503,124.001z" fill="#FFFFFF"/>
</g>
<g>
</g>
<g>
</g>
<g>
</g>
<g>
</g>
<g>
</g>
<g>
</g>
<g>
</g>
<g>
</g>
<g>
</g>
<g>
</g>
<g>
</g>
<g>
</g>
<g>
</g>
<g>
</g>
<g>
</g>
</svg>
